<mxfile host="app.diagrams.net" modified="2020-06-10T02:44:57.101Z" agent="5.0 (Windows NT 6.3; Win64; x64) AppleWebKit/537.36 (KHTML, like Gecko) Chrome/74.0.3729.169 Safari/537.36" etag="HjgDb1AgtrcDIY1ZFsg0" version="13.1.14" type="github">
  <diagram id="CbxW0ID7BawC4QdKNaEV" name="Page-1">
    <mxGraphModel dx="868" dy="484" grid="1" gridSize="10" guides="1" tooltips="1" connect="1" arrows="1" fold="1" page="1" pageScale="1" pageWidth="827" pageHeight="1169" math="0" shadow="0">
      <root>
        <mxCell id="0" />
        <mxCell id="1" parent="0" />
        <mxCell id="bFpvQQCmtC1Pk6o3WtCs-29" value="食堂就餐卡系统" style="shape=umlFrame;whiteSpace=wrap;html=1;fillColor=none;width=150;height=30;" parent="1" vertex="1">
          <mxGeometry x="170" y="70" width="560" height="540" as="geometry" />
        </mxCell>
        <mxCell id="bFpvQQCmtC1Pk6o3WtCs-30" value="用户客户端" style="verticalAlign=top;align=left;spacingTop=8;spacingLeft=2;spacingRight=12;shape=cube;size=10;direction=south;fontStyle=4;html=1;fillColor=none;" parent="1" vertex="1">
          <mxGeometry x="220" y="120" width="150" height="100" as="geometry" />
        </mxCell>
        <mxCell id="bFpvQQCmtC1Pk6o3WtCs-31" value="浏览器" style="shape=module;align=left;spacingLeft=20;align=center;verticalAlign=top;fillColor=none;" parent="1" vertex="1">
          <mxGeometry x="230" y="160" width="80" height="50" as="geometry" />
        </mxCell>
        <mxCell id="bFpvQQCmtC1Pk6o3WtCs-32" value="刷卡机" style="verticalAlign=top;align=left;spacingTop=8;spacingLeft=2;spacingRight=12;shape=cube;size=10;direction=south;fontStyle=4;html=1;fillColor=none;" parent="1" vertex="1">
          <mxGeometry x="440" y="120" width="170" height="100" as="geometry" />
        </mxCell>
        <mxCell id="bFpvQQCmtC1Pk6o3WtCs-33" value="nginx" style="shape=cube;whiteSpace=wrap;html=1;boundedLbl=1;backgroundOutline=1;darkOpacity=0.05;darkOpacity2=0.1;fillColor=none;" parent="1" vertex="1">
          <mxGeometry x="220" y="250" width="460" height="40" as="geometry" />
        </mxCell>
        <mxCell id="bFpvQQCmtC1Pk6o3WtCs-34" value="https" style="endArrow=none;html=1;entryX=0;entryY=0;entryDx=100;entryDy=80;entryPerimeter=0;" parent="1" target="bFpvQQCmtC1Pk6o3WtCs-30" edge="1">
          <mxGeometry width="50" height="50" relative="1" as="geometry">
            <mxPoint x="290" y="260" as="sourcePoint" />
            <mxPoint x="330" y="230" as="targetPoint" />
          </mxGeometry>
        </mxCell>
        <mxCell id="bFpvQQCmtC1Pk6o3WtCs-35" value="https" style="endArrow=none;html=1;exitX=0.652;exitY=0.25;exitDx=0;exitDy=0;exitPerimeter=0;entryX=0;entryY=0;entryDx=100;entryDy=90;entryPerimeter=0;" parent="1" source="bFpvQQCmtC1Pk6o3WtCs-33" target="bFpvQQCmtC1Pk6o3WtCs-32" edge="1">
          <mxGeometry width="50" height="50" relative="1" as="geometry">
            <mxPoint x="500" y="270" as="sourcePoint" />
            <mxPoint x="550" y="220" as="targetPoint" />
          </mxGeometry>
        </mxCell>
        <mxCell id="bFpvQQCmtC1Pk6o3WtCs-37" value="用户管理系统" style="verticalAlign=top;align=left;spacingTop=8;spacingLeft=2;spacingRight=12;shape=cube;size=10;direction=south;fontStyle=4;html=1;fillColor=none;" parent="1" vertex="1">
          <mxGeometry x="230" y="320" width="150" height="100" as="geometry" />
        </mxCell>
        <mxCell id="bFpvQQCmtC1Pk6o3WtCs-38" value="&lt;font style=&quot;font-size: 14px&quot;&gt;{os:Linux}&lt;/font&gt;" style="text;html=1;strokeColor=none;fillColor=none;align=center;verticalAlign=middle;whiteSpace=wrap;rounded=0;" parent="1" vertex="1">
          <mxGeometry x="251" y="360" width="40" height="20" as="geometry" />
        </mxCell>
        <mxCell id="bFpvQQCmtC1Pk6o3WtCs-39" value="&lt;font style=&quot;font-size: 14px&quot;&gt;{os:android}&lt;/font&gt;" style="text;html=1;strokeColor=none;fillColor=none;align=center;verticalAlign=middle;whiteSpace=wrap;rounded=0;" parent="1" vertex="1">
          <mxGeometry x="480" y="160" width="40" height="20" as="geometry" />
        </mxCell>
        <mxCell id="bFpvQQCmtC1Pk6o3WtCs-40" value="&lt;font style=&quot;font-size: 14px&quot;&gt;{number:2}&lt;/font&gt;" style="text;html=1;strokeColor=none;fillColor=none;align=center;verticalAlign=middle;whiteSpace=wrap;rounded=0;" parent="1" vertex="1">
          <mxGeometry x="253" y="380" width="40" height="20" as="geometry" />
        </mxCell>
        <mxCell id="bFpvQQCmtC1Pk6o3WtCs-44" value="餐费管理系统" style="verticalAlign=top;align=left;spacingTop=8;spacingLeft=2;spacingRight=12;shape=cube;size=10;direction=south;fontStyle=4;html=1;fillColor=none;" parent="1" vertex="1">
          <mxGeometry x="425" y="320" width="150" height="100" as="geometry" />
        </mxCell>
        <mxCell id="bFpvQQCmtC1Pk6o3WtCs-45" value="&lt;font style=&quot;font-size: 14px&quot;&gt;{os:Linux}&lt;/font&gt;" style="text;html=1;strokeColor=none;fillColor=none;align=center;verticalAlign=middle;whiteSpace=wrap;rounded=0;" parent="1" vertex="1">
          <mxGeometry x="446" y="360" width="40" height="20" as="geometry" />
        </mxCell>
        <mxCell id="bFpvQQCmtC1Pk6o3WtCs-46" value="&lt;font style=&quot;font-size: 14px&quot;&gt;{number:4}&lt;/font&gt;" style="text;html=1;strokeColor=none;fillColor=none;align=center;verticalAlign=middle;whiteSpace=wrap;rounded=0;" parent="1" vertex="1">
          <mxGeometry x="450" y="380" width="40" height="20" as="geometry" />
        </mxCell>
        <mxCell id="bFpvQQCmtC1Pk6o3WtCs-47" value="https" style="endArrow=none;html=1;entryX=0.152;entryY=1;entryDx=0;entryDy=0;entryPerimeter=0;" parent="1" target="bFpvQQCmtC1Pk6o3WtCs-33" edge="1">
          <mxGeometry width="50" height="50" relative="1" as="geometry">
            <mxPoint x="290" y="330" as="sourcePoint" />
            <mxPoint x="340" y="290" as="targetPoint" />
          </mxGeometry>
        </mxCell>
        <mxCell id="bFpvQQCmtC1Pk6o3WtCs-49" value="https" style="endArrow=none;html=1;exitX=0;exitY=0.373;exitDx=0;exitDy=0;exitPerimeter=0;" parent="1" source="bFpvQQCmtC1Pk6o3WtCs-44" edge="1">
          <mxGeometry width="50" height="50" relative="1" as="geometry">
            <mxPoint x="480" y="330" as="sourcePoint" />
            <mxPoint x="517" y="280" as="targetPoint" />
          </mxGeometry>
        </mxCell>
        <mxCell id="bFpvQQCmtC1Pk6o3WtCs-50" value="MYSQL" style="verticalAlign=top;align=left;spacingTop=8;spacingLeft=2;spacingRight=12;shape=cube;size=10;direction=south;fontStyle=4;html=1;fillColor=none;" parent="1" vertex="1">
          <mxGeometry x="220" y="480" width="150" height="100" as="geometry" />
        </mxCell>
        <mxCell id="bFpvQQCmtC1Pk6o3WtCs-51" value="ES 集群" style="verticalAlign=top;align=left;spacingTop=8;spacingLeft=2;spacingRight=12;shape=cube;size=10;direction=south;fontStyle=4;html=1;fillColor=none;" parent="1" vertex="1">
          <mxGeometry x="414" y="480" width="150" height="100" as="geometry" />
        </mxCell>
        <mxCell id="bFpvQQCmtC1Pk6o3WtCs-52" value="" style="endArrow=none;html=1;entryX=0;entryY=0;entryDx=100;entryDy=80;entryPerimeter=0;exitX=0;exitY=0;exitDx=0;exitDy=70;exitPerimeter=0;" parent="1" source="bFpvQQCmtC1Pk6o3WtCs-50" target="bFpvQQCmtC1Pk6o3WtCs-37" edge="1">
          <mxGeometry width="50" height="50" relative="1" as="geometry">
            <mxPoint x="280" y="480" as="sourcePoint" />
            <mxPoint x="330" y="430" as="targetPoint" />
          </mxGeometry>
        </mxCell>
        <mxCell id="bFpvQQCmtC1Pk6o3WtCs-53" value="" style="endArrow=none;html=1;exitX=0.02;exitY=0.1;exitDx=0;exitDy=0;exitPerimeter=0;" parent="1" source="bFpvQQCmtC1Pk6o3WtCs-50" edge="1">
          <mxGeometry width="50" height="50" relative="1" as="geometry">
            <mxPoint x="470" y="470" as="sourcePoint" />
            <mxPoint x="520" y="420" as="targetPoint" />
          </mxGeometry>
        </mxCell>
        <mxCell id="bFpvQQCmtC1Pk6o3WtCs-54" value="" style="endArrow=none;html=1;exitX=0.1;exitY=0.293;exitDx=0;exitDy=0;exitPerimeter=0;" parent="1" source="bFpvQQCmtC1Pk6o3WtCs-51" edge="1">
          <mxGeometry width="50" height="50" relative="1" as="geometry">
            <mxPoint x="500" y="480" as="sourcePoint" />
            <mxPoint x="520" y="420" as="targetPoint" />
          </mxGeometry>
        </mxCell>
      </root>
    </mxGraphModel>
  </diagram>
</mxfile>
